<?xml version="1.0" encoding="UTF-8" standalone="no"?>
<!DOCTYPE svg PUBLIC "-//W3C//DTD SVG 1.1//EN"
 "http://www.w3.org/Graphics/SVG/1.1/DTD/svg11.dtd">
<!-- Generated by graphviz version 2.38.0 (20140413.2041)
 -->
<!-- Title: controllers_diagram Pages: 1 -->
<svg width="768pt" height="751pt"
 viewBox="0.00 0.00 767.50 750.50" xmlns="http://www.w3.org/2000/svg" xmlns:xlink="http://www.w3.org/1999/xlink">
<g id="graph0" class="graph" transform="scale(1 1) rotate(0) translate(326.5 423.5)">
<title>controllers_diagram</title>
<polygon fill="none" stroke="none" points="-326.5,327 -326.5,-423.5 441,-423.5 441,327 -326.5,327"/>
<!-- ActivitiesController -->
<g id="node1" class="node"><title>ActivitiesController</title>
<path fill="none" stroke="black" d="M164.5,-153C164.5,-153 265.5,-153 265.5,-153 271.5,-153 277.5,-159 277.5,-165 277.5,-165 277.5,-369 277.5,-369 277.5,-375 271.5,-381 265.5,-381 265.5,-381 164.5,-381 164.5,-381 158.5,-381 152.5,-375 152.5,-369 152.5,-369 152.5,-165 152.5,-165 152.5,-159 158.5,-153 164.5,-153"/>
<text text-anchor="middle" x="215" y="-365.8" font-family="Times New Roman,serif" font-size="14.00">ActivitiesController</text>
<polyline fill="none" stroke="black" points="152.5,-358 277.5,-358 "/>
<text text-anchor="start" x="160.5" y="-342.8" font-family="Times New Roman,serif" font-size="14.00">create</text>
<text text-anchor="start" x="160.5" y="-327.8" font-family="Times New Roman,serif" font-size="14.00">destroy</text>
<text text-anchor="start" x="160.5" y="-312.8" font-family="Times New Roman,serif" font-size="14.00">edit</text>
<text text-anchor="start" x="160.5" y="-297.8" font-family="Times New Roman,serif" font-size="14.00">import</text>
<text text-anchor="start" x="160.5" y="-282.8" font-family="Times New Roman,serif" font-size="14.00">index</text>
<text text-anchor="start" x="160.5" y="-267.8" font-family="Times New Roman,serif" font-size="14.00">new</text>
<text text-anchor="start" x="160.5" y="-252.8" font-family="Times New Roman,serif" font-size="14.00">show</text>
<text text-anchor="start" x="160.5" y="-237.8" font-family="Times New Roman,serif" font-size="14.00">update</text>
<polyline fill="none" stroke="black" points="152.5,-230 277.5,-230 "/>
<polyline fill="none" stroke="black" points="152.5,-206 277.5,-206 "/>
<text text-anchor="start" x="160.5" y="-190.8" font-family="Times New Roman,serif" font-size="14.00">_layout</text>
<text text-anchor="start" x="160.5" y="-175.8" font-family="Times New Roman,serif" font-size="14.00">activity_params</text>
<text text-anchor="start" x="160.5" y="-160.8" font-family="Times New Roman,serif" font-size="14.00">set_activity</text>
</g>
<!-- ApplicationController -->
<g id="node2" class="node"><title>ApplicationController</title>
<path fill="none" stroke="black" d="M12.5,246C12.5,246 125.5,246 125.5,246 131.5,246 137.5,240 137.5,234 137.5,234 137.5,164 137.5,164 137.5,158 131.5,152 125.5,152 125.5,152 12.5,152 12.5,152 6.5,152 0.5,158 0.5,164 0.5,164 0.5,234 0.5,234 0.5,240 6.5,246 12.5,246"/>
<text text-anchor="middle" x="69" y="167.2" font-family="Times New Roman,serif" font-size="14.00">ApplicationController</text>
<polyline fill="none" stroke="black" points="0.5,175 137.5,175 "/>
<polyline fill="none" stroke="black" points="0.5,199 137.5,199 "/>
<polyline fill="none" stroke="black" points="0.5,223 137.5,223 "/>
<text text-anchor="start" x="8.5" y="238.2" font-family="Times New Roman,serif" font-size="14.00">_layout</text>
</g>
<!-- AssignmentsController -->
<g id="node3" class="node"><title>AssignmentsController</title>
<path fill="none" stroke="black" d="M-64,113.5C-64,113.5 56,113.5 56,113.5 62,113.5 68,107.5 68,101.5 68,101.5 68,-87.5 68,-87.5 68,-93.5 62,-99.5 56,-99.5 56,-99.5 -64,-99.5 -64,-99.5 -70,-99.5 -76,-93.5 -76,-87.5 -76,-87.5 -76,101.5 -76,101.5 -76,107.5 -70,113.5 -64,113.5"/>
<text text-anchor="middle" x="-4" y="-84.3" font-family="Times New Roman,serif" font-size="14.00">AssignmentsController</text>
<polyline fill="none" stroke="black" points="-76,-76.5 68,-76.5 "/>
<text text-anchor="start" x="-68" y="-61.3" font-family="Times New Roman,serif" font-size="14.00">create</text>
<text text-anchor="start" x="-68" y="-46.3" font-family="Times New Roman,serif" font-size="14.00">destroy</text>
<text text-anchor="start" x="-68" y="-31.3" font-family="Times New Roman,serif" font-size="14.00">edit</text>
<text text-anchor="start" x="-68" y="-16.3" font-family="Times New Roman,serif" font-size="14.00">index</text>
<text text-anchor="start" x="-68" y="-1.3" font-family="Times New Roman,serif" font-size="14.00">new</text>
<text text-anchor="start" x="-68" y="13.7" font-family="Times New Roman,serif" font-size="14.00">show</text>
<text text-anchor="start" x="-68" y="28.7" font-family="Times New Roman,serif" font-size="14.00">update</text>
<polyline fill="none" stroke="black" points="-76,36.5 68,36.5 "/>
<polyline fill="none" stroke="black" points="-76,60.5 68,60.5 "/>
<text text-anchor="start" x="-68" y="75.7" font-family="Times New Roman,serif" font-size="14.00">_layout</text>
<text text-anchor="start" x="-68" y="90.7" font-family="Times New Roman,serif" font-size="14.00">assignment_params</text>
<text text-anchor="start" x="-68" y="105.7" font-family="Times New Roman,serif" font-size="14.00">set_assignment</text>
</g>
<!-- InvoicesController -->
<g id="node4" class="node"><title>InvoicesController</title>
<path fill="none" stroke="black" d="M-26,-133.5C-26,-133.5 70,-133.5 70,-133.5 76,-133.5 82,-139.5 82,-145.5 82,-145.5 82,-334.5 82,-334.5 82,-340.5 76,-346.5 70,-346.5 70,-346.5 -26,-346.5 -26,-346.5 -32,-346.5 -38,-340.5 -38,-334.5 -38,-334.5 -38,-145.5 -38,-145.5 -38,-139.5 -32,-133.5 -26,-133.5"/>
<text text-anchor="middle" x="22" y="-331.3" font-family="Times New Roman,serif" font-size="14.00">InvoicesController</text>
<polyline fill="none" stroke="black" points="-38,-323.5 82,-323.5 "/>
<text text-anchor="start" x="-30" y="-308.3" font-family="Times New Roman,serif" font-size="14.00">create</text>
<text text-anchor="start" x="-30" y="-293.3" font-family="Times New Roman,serif" font-size="14.00">destroy</text>
<text text-anchor="start" x="-30" y="-278.3" font-family="Times New Roman,serif" font-size="14.00">edit</text>
<text text-anchor="start" x="-30" y="-263.3" font-family="Times New Roman,serif" font-size="14.00">index</text>
<text text-anchor="start" x="-30" y="-248.3" font-family="Times New Roman,serif" font-size="14.00">new</text>
<text text-anchor="start" x="-30" y="-233.3" font-family="Times New Roman,serif" font-size="14.00">show</text>
<text text-anchor="start" x="-30" y="-218.3" font-family="Times New Roman,serif" font-size="14.00">update</text>
<polyline fill="none" stroke="black" points="-38,-210.5 82,-210.5 "/>
<polyline fill="none" stroke="black" points="-38,-186.5 82,-186.5 "/>
<text text-anchor="start" x="-30" y="-171.3" font-family="Times New Roman,serif" font-size="14.00">_layout</text>
<text text-anchor="start" x="-30" y="-156.3" font-family="Times New Roman,serif" font-size="14.00">invoice_params</text>
<text text-anchor="start" x="-30" y="-141.3" font-family="Times New Roman,serif" font-size="14.00">set_invoice</text>
</g>
<!-- MembersController -->
<g id="node5" class="node"><title>MembersController</title>
<path fill="none" stroke="black" d="M126.5,113C126.5,113 227.5,113 227.5,113 233.5,113 239.5,107 239.5,101 239.5,101 239.5,-103 239.5,-103 239.5,-109 233.5,-115 227.5,-115 227.5,-115 126.5,-115 126.5,-115 120.5,-115 114.5,-109 114.5,-103 114.5,-103 114.5,101 114.5,101 114.5,107 120.5,113 126.5,113"/>
<text text-anchor="middle" x="177" y="-99.8" font-family="Times New Roman,serif" font-size="14.00">MembersController</text>
<polyline fill="none" stroke="black" points="114.5,-92 239.5,-92 "/>
<text text-anchor="start" x="122.5" y="-76.8" font-family="Times New Roman,serif" font-size="14.00">create</text>
<text text-anchor="start" x="122.5" y="-61.8" font-family="Times New Roman,serif" font-size="14.00">destroy</text>
<text text-anchor="start" x="122.5" y="-46.8" font-family="Times New Roman,serif" font-size="14.00">edit</text>
<text text-anchor="start" x="122.5" y="-31.8" font-family="Times New Roman,serif" font-size="14.00">import</text>
<text text-anchor="start" x="122.5" y="-16.8" font-family="Times New Roman,serif" font-size="14.00">index</text>
<text text-anchor="start" x="122.5" y="-1.8" font-family="Times New Roman,serif" font-size="14.00">new</text>
<text text-anchor="start" x="122.5" y="13.2" font-family="Times New Roman,serif" font-size="14.00">show</text>
<text text-anchor="start" x="122.5" y="28.2" font-family="Times New Roman,serif" font-size="14.00">update</text>
<polyline fill="none" stroke="black" points="114.5,36 239.5,36 "/>
<polyline fill="none" stroke="black" points="114.5,60 239.5,60 "/>
<text text-anchor="start" x="122.5" y="75.2" font-family="Times New Roman,serif" font-size="14.00">_layout</text>
<text text-anchor="start" x="122.5" y="90.2" font-family="Times New Roman,serif" font-size="14.00">member_params</text>
<text text-anchor="start" x="122.5" y="105.2" font-family="Times New Roman,serif" font-size="14.00">set_member</text>
</g>
<!-- PeopleController -->
<g id="node6" class="node"><title>PeopleController</title>
<path fill="none" stroke="black" d="M-215.5,75C-215.5,75 -128.5,75 -128.5,75 -122.5,75 -116.5,69 -116.5,63 -116.5,63 -116.5,-141 -116.5,-141 -116.5,-147 -122.5,-153 -128.5,-153 -128.5,-153 -215.5,-153 -215.5,-153 -221.5,-153 -227.5,-147 -227.5,-141 -227.5,-141 -227.5,63 -227.5,63 -227.5,69 -221.5,75 -215.5,75"/>
<text text-anchor="middle" x="-172" y="-137.8" font-family="Times New Roman,serif" font-size="14.00">PeopleController</text>
<polyline fill="none" stroke="black" points="-227.5,-130 -116.5,-130 "/>
<text text-anchor="start" x="-219.5" y="-114.8" font-family="Times New Roman,serif" font-size="14.00">create</text>
<text text-anchor="start" x="-219.5" y="-99.8" font-family="Times New Roman,serif" font-size="14.00">destroy</text>
<text text-anchor="start" x="-219.5" y="-84.8" font-family="Times New Roman,serif" font-size="14.00">edit</text>
<text text-anchor="start" x="-219.5" y="-69.8" font-family="Times New Roman,serif" font-size="14.00">import</text>
<text text-anchor="start" x="-219.5" y="-54.8" font-family="Times New Roman,serif" font-size="14.00">index</text>
<text text-anchor="start" x="-219.5" y="-39.8" font-family="Times New Roman,serif" font-size="14.00">new</text>
<text text-anchor="start" x="-219.5" y="-24.8" font-family="Times New Roman,serif" font-size="14.00">show</text>
<text text-anchor="start" x="-219.5" y="-9.8" font-family="Times New Roman,serif" font-size="14.00">update</text>
<polyline fill="none" stroke="black" points="-227.5,-2 -116.5,-2 "/>
<polyline fill="none" stroke="black" points="-227.5,22 -116.5,22 "/>
<text text-anchor="start" x="-219.5" y="37.2" font-family="Times New Roman,serif" font-size="14.00">_layout</text>
<text text-anchor="start" x="-219.5" y="52.2" font-family="Times New Roman,serif" font-size="14.00">person_params</text>
<text text-anchor="start" x="-219.5" y="67.2" font-family="Times New Roman,serif" font-size="14.00">set_person</text>
</g>
<!-- PlacesController -->
<g id="node7" class="node"><title>PlacesController</title>
<path fill="none" stroke="black" d="M297.5,284.5C297.5,284.5 382.5,284.5 382.5,284.5 388.5,284.5 394.5,278.5 394.5,272.5 394.5,272.5 394.5,83.5 394.5,83.5 394.5,77.5 388.5,71.5 382.5,71.5 382.5,71.5 297.5,71.5 297.5,71.5 291.5,71.5 285.5,77.5 285.5,83.5 285.5,83.5 285.5,272.5 285.5,272.5 285.5,278.5 291.5,284.5 297.5,284.5"/>
<text text-anchor="middle" x="340" y="86.7" font-family="Times New Roman,serif" font-size="14.00">PlacesController</text>
<polyline fill="none" stroke="black" points="285.5,94.5 394.5,94.5 "/>
<text text-anchor="start" x="293.5" y="109.7" font-family="Times New Roman,serif" font-size="14.00">create</text>
<text text-anchor="start" x="293.5" y="124.7" font-family="Times New Roman,serif" font-size="14.00">destroy</text>
<text text-anchor="start" x="293.5" y="139.7" font-family="Times New Roman,serif" font-size="14.00">edit</text>
<text text-anchor="start" x="293.5" y="154.7" font-family="Times New Roman,serif" font-size="14.00">index</text>
<text text-anchor="start" x="293.5" y="169.7" font-family="Times New Roman,serif" font-size="14.00">new</text>
<text text-anchor="start" x="293.5" y="184.7" font-family="Times New Roman,serif" font-size="14.00">show</text>
<text text-anchor="start" x="293.5" y="199.7" font-family="Times New Roman,serif" font-size="14.00">update</text>
<polyline fill="none" stroke="black" points="285.5,207.5 394.5,207.5 "/>
<polyline fill="none" stroke="black" points="285.5,231.5 394.5,231.5 "/>
<text text-anchor="start" x="293.5" y="246.7" font-family="Times New Roman,serif" font-size="14.00">_layout</text>
<text text-anchor="start" x="293.5" y="261.7" font-family="Times New Roman,serif" font-size="14.00">place_params</text>
<text text-anchor="start" x="293.5" y="276.7" font-family="Times New Roman,serif" font-size="14.00">set_place</text>
</g>
<!-- PtypesController -->
<g id="node8" class="node"><title>PtypesController</title>
<path fill="none" stroke="black" d="M-310.5,322.5C-310.5,322.5 -223.5,322.5 -223.5,322.5 -217.5,322.5 -211.5,316.5 -211.5,310.5 -211.5,310.5 -211.5,121.5 -211.5,121.5 -211.5,115.5 -217.5,109.5 -223.5,109.5 -223.5,109.5 -310.5,109.5 -310.5,109.5 -316.5,109.5 -322.5,115.5 -322.5,121.5 -322.5,121.5 -322.5,310.5 -322.5,310.5 -322.5,316.5 -316.5,322.5 -310.5,322.5"/>
<text text-anchor="middle" x="-267" y="124.7" font-family="Times New Roman,serif" font-size="14.00">PtypesController</text>
<polyline fill="none" stroke="black" points="-322.5,132.5 -211.5,132.5 "/>
<text text-anchor="start" x="-314.5" y="147.7" font-family="Times New Roman,serif" font-size="14.00">create</text>
<text text-anchor="start" x="-314.5" y="162.7" font-family="Times New Roman,serif" font-size="14.00">destroy</text>
<text text-anchor="start" x="-314.5" y="177.7" font-family="Times New Roman,serif" font-size="14.00">edit</text>
<text text-anchor="start" x="-314.5" y="192.7" font-family="Times New Roman,serif" font-size="14.00">index</text>
<text text-anchor="start" x="-314.5" y="207.7" font-family="Times New Roman,serif" font-size="14.00">new</text>
<text text-anchor="start" x="-314.5" y="222.7" font-family="Times New Roman,serif" font-size="14.00">show</text>
<text text-anchor="start" x="-314.5" y="237.7" font-family="Times New Roman,serif" font-size="14.00">update</text>
<polyline fill="none" stroke="black" points="-322.5,245.5 -211.5,245.5 "/>
<polyline fill="none" stroke="black" points="-322.5,269.5 -211.5,269.5 "/>
<text text-anchor="start" x="-314.5" y="284.7" font-family="Times New Roman,serif" font-size="14.00">_layout</text>
<text text-anchor="start" x="-314.5" y="299.7" font-family="Times New Roman,serif" font-size="14.00">ptype_params</text>
<text text-anchor="start" x="-314.5" y="314.7" font-family="Times New Roman,serif" font-size="14.00">set_ptype</text>
</g>
<!-- TasksController -->
<g id="node9" class="node"><title>TasksController</title>
<path fill="none" stroke="black" d="M-177.5,-191C-177.5,-191 -94.5,-191 -94.5,-191 -88.5,-191 -82.5,-197 -82.5,-203 -82.5,-203 -82.5,-407 -82.5,-407 -82.5,-413 -88.5,-419 -94.5,-419 -94.5,-419 -177.5,-419 -177.5,-419 -183.5,-419 -189.5,-413 -189.5,-407 -189.5,-407 -189.5,-203 -189.5,-203 -189.5,-197 -183.5,-191 -177.5,-191"/>
<text text-anchor="middle" x="-136" y="-403.8" font-family="Times New Roman,serif" font-size="14.00">TasksController</text>
<polyline fill="none" stroke="black" points="-189.5,-396 -82.5,-396 "/>
<text text-anchor="start" x="-181.5" y="-380.8" font-family="Times New Roman,serif" font-size="14.00">create</text>
<text text-anchor="start" x="-181.5" y="-365.8" font-family="Times New Roman,serif" font-size="14.00">destroy</text>
<text text-anchor="start" x="-181.5" y="-350.8" font-family="Times New Roman,serif" font-size="14.00">edit</text>
<text text-anchor="start" x="-181.5" y="-335.8" font-family="Times New Roman,serif" font-size="14.00">import</text>
<text text-anchor="start" x="-181.5" y="-320.8" font-family="Times New Roman,serif" font-size="14.00">index</text>
<text text-anchor="start" x="-181.5" y="-305.8" font-family="Times New Roman,serif" font-size="14.00">new</text>
<text text-anchor="start" x="-181.5" y="-290.8" font-family="Times New Roman,serif" font-size="14.00">show</text>
<text text-anchor="start" x="-181.5" y="-275.8" font-family="Times New Roman,serif" font-size="14.00">update</text>
<polyline fill="none" stroke="black" points="-189.5,-268 -82.5,-268 "/>
<polyline fill="none" stroke="black" points="-189.5,-244 -82.5,-244 "/>
<text text-anchor="start" x="-181.5" y="-228.8" font-family="Times New Roman,serif" font-size="14.00">_layout</text>
<text text-anchor="start" x="-181.5" y="-213.8" font-family="Times New Roman,serif" font-size="14.00">set_task</text>
<text text-anchor="start" x="-181.5" y="-198.8" font-family="Times New Roman,serif" font-size="14.00">task_params</text>
</g>
<!-- TicketsController -->
<g id="node10" class="node"><title>TicketsController</title>
<path fill="none" stroke="black" d="M335,37.5C335,37.5 425,37.5 425,37.5 431,37.5 437,31.5 437,25.5 437,25.5 437,-163.5 437,-163.5 437,-169.5 431,-175.5 425,-175.5 425,-175.5 335,-175.5 335,-175.5 329,-175.5 323,-169.5 323,-163.5 323,-163.5 323,25.5 323,25.5 323,31.5 329,37.5 335,37.5"/>
<text text-anchor="middle" x="380" y="-160.3" font-family="Times New Roman,serif" font-size="14.00">TicketsController</text>
<polyline fill="none" stroke="black" points="323,-152.5 437,-152.5 "/>
<text text-anchor="start" x="331" y="-137.3" font-family="Times New Roman,serif" font-size="14.00">create</text>
<text text-anchor="start" x="331" y="-122.3" font-family="Times New Roman,serif" font-size="14.00">destroy</text>
<text text-anchor="start" x="331" y="-107.3" font-family="Times New Roman,serif" font-size="14.00">edit</text>
<text text-anchor="start" x="331" y="-92.3" font-family="Times New Roman,serif" font-size="14.00">index</text>
<text text-anchor="start" x="331" y="-77.3" font-family="Times New Roman,serif" font-size="14.00">new</text>
<text text-anchor="start" x="331" y="-62.3" font-family="Times New Roman,serif" font-size="14.00">show</text>
<text text-anchor="start" x="331" y="-47.3" font-family="Times New Roman,serif" font-size="14.00">update</text>
<polyline fill="none" stroke="black" points="323,-39.5 437,-39.5 "/>
<polyline fill="none" stroke="black" points="323,-15.5 437,-15.5 "/>
<text text-anchor="start" x="331" y="-0.3" font-family="Times New Roman,serif" font-size="14.00">_layout</text>
<text text-anchor="start" x="331" y="14.7" font-family="Times New Roman,serif" font-size="14.00">set_ticket</text>
<text text-anchor="start" x="331" y="29.7" font-family="Times New Roman,serif" font-size="14.00">ticket_params</text>
</g>
</g>
</svg>
