<?xml version="1.0" encoding="UTF-8" standalone="no"?>
<!DOCTYPE svg PUBLIC "-//W3C//DTD SVG 1.1//EN"
 "http://www.w3.org/Graphics/SVG/1.1/DTD/svg11.dtd">
<!-- Generated by graphviz version 2.38.0 (20140413.2041)
 -->
<!-- Title: models_diagram Pages: 1 -->
<svg width="464pt" height="332pt"
 viewBox="0.00 0.00 464.00 332.00" xmlns="http://www.w3.org/2000/svg" xmlns:xlink="http://www.w3.org/1999/xlink">
<g id="graph0" class="graph" transform="scale(1 1) rotate(0) translate(4 328)">
<title>models_diagram</title>
<polygon fill="none" stroke="none" points="-4,4 -4,-328 460,-328 460,4 -4,4"/>
<!-- Activity -->
<g id="node1" class="node"><title>Activity</title>
<ellipse fill="none" stroke="black" cx="39" cy="-162" rx="39" ry="18"/>
<text text-anchor="middle" x="39" y="-158.3" font-family="Times New Roman,serif" font-size="14.00">Activity</text>
</g>
<!-- Task -->
<g id="node2" class="node"><title>Task</title>
<ellipse fill="none" stroke="black" cx="46" cy="-90" rx="28.6953" ry="18"/>
<text text-anchor="middle" x="46" y="-86.3" font-family="Times New Roman,serif" font-size="14.00">Task</text>
</g>
<!-- Activity&#45;&gt;Task -->
<g id="edge1" class="edge"><title>Activity&#45;&gt;Task</title>
<path fill="none" stroke="#b8312c" d="M41.536,-135.64C42.0937,-130.063 42.6868,-124.132 43.2524,-118.476"/>
<ellipse fill="none" stroke="#b8312c" cx="41.1284" cy="-139.716" rx="4" ry="4"/>
<polygon fill="#b8312c" stroke="#b8312c" points="43.2944,-118.055 48.7672,-108.552 43.792,-113.08 44.2896,-108.104 44.2896,-108.104 44.2896,-108.104 43.792,-113.08 39.8119,-107.657 43.2944,-118.055 43.2944,-118.055"/>
</g>
<!-- Ticket -->
<g id="node3" class="node"><title>Ticket</title>
<ellipse fill="none" stroke="black" cx="134" cy="-90" rx="34" ry="18"/>
<text text-anchor="middle" x="134" y="-86.3" font-family="Times New Roman,serif" font-size="14.00">Ticket</text>
</g>
<!-- Activity&#45;&gt;Ticket -->
<g id="edge2" class="edge"><title>Activity&#45;&gt;Ticket</title>
<path fill="none" stroke="#1af729" d="M65.6,-141.4C78.4455,-131.935 93.8383,-120.593 106.766,-111.067"/>
<ellipse fill="none" stroke="#1af729" cx="62.3673" cy="-143.782" rx="4.00002" ry="4.00002"/>
<polygon fill="#1af729" stroke="#1af729" points="106.803,-111.04 117.523,-108.73 110.829,-108.074 114.854,-105.108 114.854,-105.108 114.854,-105.108 110.829,-108.074 112.185,-101.485 106.803,-111.04 106.803,-111.04"/>
</g>
<!-- Assignment -->
<g id="node5" class="node"><title>Assignment</title>
<ellipse fill="none" stroke="black" cx="142" cy="-18" rx="53.5" ry="18"/>
<text text-anchor="middle" x="142" y="-14.3" font-family="Times New Roman,serif" font-size="14.00">Assignment</text>
</g>
<!-- Task&#45;&gt;Assignment -->
<g id="edge10" class="edge"><title>Task&#45;&gt;Assignment</title>
<path fill="none" stroke="#5d7f3d" d="M70.8246,-70.8987C83.4955,-61.6595 99.0013,-50.3532 112.302,-40.6548"/>
<ellipse fill="none" stroke="#5d7f3d" cx="67.2889" cy="-73.4768" rx="4.00002" ry="4.00002"/>
<polygon fill="#5d7f3d" stroke="#5d7f3d" points="112.592,-40.4433 123.323,-38.1876 116.632,-37.4974 120.672,-34.5516 120.672,-34.5516 120.672,-34.5516 116.632,-37.4974 118.021,-30.9155 112.592,-40.4433 112.592,-40.4433"/>
</g>
<!-- ApplicationRecord -->
<g id="node4" class="node"><title>ApplicationRecord</title>
<ellipse fill="none" stroke="black" cx="376" cy="-306" rx="80" ry="18"/>
<text text-anchor="middle" x="376" y="-302.3" font-family="Times New Roman,serif" font-size="14.00">ApplicationRecord</text>
</g>
<!-- Invoice -->
<g id="node6" class="node"><title>Invoice</title>
<ellipse fill="none" stroke="black" cx="134" cy="-162" rx="37.8943" ry="18"/>
<text text-anchor="middle" x="134" y="-158.3" font-family="Times New Roman,serif" font-size="14.00">Invoice</text>
</g>
<!-- Invoice&#45;&gt;Ticket -->
<g id="edge3" class="edge"><title>Invoice&#45;&gt;Ticket</title>
<path fill="none" stroke="#75aba7" d="M134,-135.64C134,-130.063 134,-124.132 134,-118.476"/>
<ellipse fill="none" stroke="#75aba7" cx="134" cy="-139.697" rx="4" ry="4"/>
<polygon fill="#75aba7" stroke="#75aba7" points="134,-118.104 138.5,-108.104 134,-113.104 134,-108.104 134,-108.104 134,-108.104 134,-113.104 129.5,-108.104 134,-118.104 134,-118.104"/>
</g>
<!-- Member -->
<g id="node7" class="node"><title>Member</title>
<ellipse fill="none" stroke="black" cx="155" cy="-306" rx="41" ry="18"/>
<text text-anchor="middle" x="155" y="-302.3" font-family="Times New Roman,serif" font-size="14.00">Member</text>
</g>
<!-- Person -->
<g id="node8" class="node"><title>Person</title>
<ellipse fill="none" stroke="black" cx="200" cy="-234" rx="36.5" ry="18"/>
<text text-anchor="middle" x="200" y="-230.3" font-family="Times New Roman,serif" font-size="14.00">Person</text>
</g>
<!-- Member&#45;&gt;Person -->
<g id="edge4" class="edge"><title>Member&#45;&gt;Person</title>
<path fill="none" stroke="#c1801c" d="M170.091,-281.526C174.548,-274.592 179.442,-266.979 183.957,-259.955"/>
<ellipse fill="none" stroke="#c1801c" cx="167.827" cy="-285.046" rx="4.00002" ry="4.00002"/>
<polygon fill="#c1801c" stroke="#c1801c" points="184.005,-259.882 193.197,-253.903 186.708,-255.676 189.412,-251.47 189.412,-251.47 189.412,-251.47 186.708,-255.676 185.627,-249.037 184.005,-259.882 184.005,-259.882"/>
</g>
<!-- Person&#45;&gt;Activity -->
<g id="edge5" class="edge"><title>Person&#45;&gt;Activity</title>
<path fill="none" stroke="#94e370" d="M165.796,-218.129C139.414,-206.658 102.982,-190.818 75.9372,-179.06"/>
<ellipse fill="none" stroke="#94e370" cx="169.746" cy="-219.846" rx="4.00002" ry="4.00002"/>
<polygon fill="#94e370" stroke="#94e370" points="75.6047,-178.915 68.2283,-170.801 71.0194,-176.921 66.434,-174.928 66.434,-174.928 66.434,-174.928 71.0194,-176.921 64.6397,-179.055 75.6047,-178.915 75.6047,-178.915"/>
</g>
<!-- Person&#45;&gt;Ticket -->
<g id="edge7" class="edge"><title>Person&#45;&gt;Ticket</title>
<path fill="none" stroke="#53bc62" d="M198.082,-207.769C195.872,-189.295 191.134,-164.055 181,-144 175.337,-132.794 166.716,-122.096 158.397,-113.284"/>
<ellipse fill="none" stroke="#53bc62" cx="198.507" cy="-211.761" rx="4" ry="4"/>
<polygon fill="#53bc62" stroke="#53bc62" points="158.281,-113.167 154.444,-102.894 154.763,-109.614 151.245,-106.06 151.245,-106.06 151.245,-106.06 154.763,-109.614 148.047,-109.226 158.281,-113.167 158.281,-113.167"/>
</g>
<!-- Person&#45;&gt;Assignment -->
<g id="edge6" class="edge"><title>Person&#45;&gt;Assignment</title>
<path fill="none" stroke="#2633b8" d="M200.573,-207.798C200.747,-199.003 200.914,-189.066 201,-180 201.151,-164.001 203.563,-159.793 201,-144 195.597,-110.705 191.754,-102.333 177,-72 172.347,-62.4326 166.229,-52.5484 160.412,-43.9453"/>
<ellipse fill="none" stroke="#2633b8" cx="200.489" cy="-211.816" rx="4" ry="4"/>
<polygon fill="#2633b8" stroke="#2633b8" points="160.251,-43.7145 158.225,-32.9374 157.392,-39.6125 154.533,-35.5106 154.533,-35.5106 154.533,-35.5106 157.392,-39.6125 150.842,-38.0838 160.251,-43.7145 160.251,-43.7145"/>
</g>
<!-- Place -->
<g id="node9" class="node"><title>Place</title>
<ellipse fill="none" stroke="black" cx="39" cy="-234" rx="30.5947" ry="18"/>
<text text-anchor="middle" x="39" y="-230.3" font-family="Times New Roman,serif" font-size="14.00">Place</text>
</g>
<!-- Place&#45;&gt;Activity -->
<g id="edge8" class="edge"><title>Place&#45;&gt;Activity</title>
<path fill="none" stroke="#fef1f2" d="M39,-207.64C39,-202.063 39,-196.132 39,-190.476"/>
<ellipse fill="none" stroke="#fef1f2" cx="39" cy="-211.697" rx="4" ry="4"/>
<polygon fill="#fef1f2" stroke="#fef1f2" points="39.0001,-190.104 43.5,-180.104 39,-185.104 39,-180.104 39,-180.104 39,-180.104 39,-185.104 34.5,-180.104 39.0001,-190.104 39.0001,-190.104"/>
</g>
<!-- Ptype -->
<g id="node10" class="node"><title>Ptype</title>
<ellipse fill="none" stroke="black" cx="246" cy="-306" rx="32" ry="18"/>
<text text-anchor="middle" x="246" y="-302.3" font-family="Times New Roman,serif" font-size="14.00">Ptype</text>
</g>
<!-- Ptype&#45;&gt;Person -->
<g id="edge9" class="edge"><title>Ptype&#45;&gt;Person</title>
<path fill="none" stroke="#86a0a8" d="M230.803,-281.874C226.236,-274.924 221.203,-267.265 216.552,-260.188"/>
<ellipse fill="none" stroke="#86a0a8" cx="233.134" cy="-285.422" rx="4.00002" ry="4.00002"/>
<polygon fill="#86a0a8" stroke="#86a0a8" points="216.422,-259.99 214.691,-249.162 213.676,-255.812 210.931,-251.633 210.931,-251.633 210.931,-251.633 213.676,-255.812 207.17,-254.105 216.422,-259.99 216.422,-259.99"/>
</g>
</g>
</svg>
